<svg width="85" height="85" viewBox="0 0 85 85" fill="none" xmlns="http://www.w3.org/2000/svg">
<path d="M0 20C0 8.9543 8.95431 0 20 0H65C76.0457 0 85 8.95431 85 20V65C85 76.0457 76.0457 85 65 85H20C8.9543 85 0 76.0457 0 65V20Z" fill="#815151" fill-opacity="0.94"/>
<path d="M55.8488 56.5161C56.5627 55.8416 55.8435 54.7278 54.8737 54.8829C53.8159 55.0521 52.7302 55.1401 51.6234 55.1401C40.5951 55.1401 31.655 46.4061 31.655 35.6322C31.655 32.4177 32.4509 29.3847 33.8606 26.7112C34.3186 25.8425 33.4977 24.7948 32.6257 25.2467C26.3052 28.5215 22 35.0156 22 42.4921C22 53.266 30.9401 62 41.9683 62C47.3617 62 52.2557 59.911 55.8488 56.5161Z" fill="#D9D9D9"/>
<path d="M50.0079 51.5C51.9259 49.5907 53.5112 46.4671 53.5112 43.5715C53.5112 37.733 48.6974 33 42.7593 33C40.441 33 36.508 34 35.008 36.5C34.9901 36.7965 35.008 36.1992 35.008 36.5C35.008 44.2842 42.1714 50.5528 50.0079 51.5Z" fill="#D9D9D9"/>
<path fill-rule="evenodd" clip-rule="evenodd" d="M42.5112 31V23L44.5112 23L44.5112 31H42.5112Z" fill="#D9D9D9"/>
<path fill-rule="evenodd" clip-rule="evenodd" d="M55.5112 42H63.5112V44H55.5112V42Z" fill="#D9D9D9"/>
<path fill-rule="evenodd" clip-rule="evenodd" d="M52.5111 33.3994L58.4143 28L59.7641 29.4758L53.861 34.8752L52.5111 33.3994Z" fill="#D9D9D9"/>
</svg>
